# AST/ASF file generated using VICON BodyLanguage
# -----------------------------------------------
:version 1.10
:name VICON
:units
  mass 1.0
  length 0.45
  angle deg
:documentation
   .ast/.asf automatically generated from VICON data using
   VICON BodyBuilder and BodyLanguage model FoxedUp or BRILLIANT.MOD
:root
   order TX TY TZ RX RY RZ
   axis XYZ
   position 0 0 0  
   orientation 0 0 0 
:bonedata
  begin
     id 1 
     name lhipjoint
     direction 0.722297 -0.617336 0.311742 
     length 2.6635 
     axis 0 0 0  XYZ
  end
  begin
     id 2 
     name lfemur
     direction 0.34202 -0.939693 0  
     length 7.39349  
     axis 0 0 20  XYZ
    dof rx ry rz
    limits (-160.0 20.0)
           (-70.0 70.0)
           (-60.0 70.0)
  end
  begin
     id 3 
     name ltibia
     direction 0.34202 -0.939693 0   
     length 7.36294   
     axis 0 0 20   XYZ
    dof rx
    limits (-10.0 170.0)
  end
  begin
     id 4 
     name lfoot
     direction 0.104879 -0.288152 0.951824   
     length 2.16981   
     axis -90 7.62852e-016 20   XYZ
    dof rx rz
    limits (-45.0 90.0)
           (-70.0 20.0)
  end
  begin
     id 5 
     name ltoes
     direction 1.53586e-011 -4.21895e-011 1   
     length 1.08218   
     axis -90 7.62852e-016 20   XYZ
    dof rx
    limits (-90.0 20.0)
  end
  begin
     id 6 
     name rhipjoint
     direction -0.75102 -0.589393 0.297631   
     length 2.78977  
     axis 0 0 0  XYZ 
  end
  begin
     id 7 
     name rfemur
     direction -0.34202 -0.939693 0   
     length 7.46076   
     axis 0 0 -20   XYZ
    dof rx ry rz
    limits (-160.0 20.0)
           (-70.0 70.0)
           (-70.0 60.0)
  end
  begin
     id 8 
     name rtibia
     direction -0.34202 -0.939693 0   
     length 7.31726   
     axis 0 0 -20   XYZ
    dof rx
    limits (-10.0 170.0)
 end
 begin
     id 9 
     name rfoot
     direction -0.107991 -0.296704 0.948844   
     length 2.09388  
     axis -90 -7.62852e-016 -20   XYZ
    dof rx rz
    limits (-45.0 90.0)
           (-20.0 70.0)
  end
  begin
     id 10 
     name rtoes
     direction -1.53559e-011 -4.21911e-011 1   
     length 1.04433   
     axis -90 -7.62852e-016 -20   XYZ
    dof rx
    limits (-90.0 20.0)
  end
  begin
     id 11 
     name lowerback
     direction 0.0165164 0.98272 0.184358   
     length 1.71896   
     axis 0 0 0   XYZ
    dof rx ry rz
    limits (-20.0 45.0)
           (-30.0 30.0)
           (-30.0 30.0)
  end
  begin
     id 12 
     name upperback
     direction -0.00887249 0.992297 0.123566   
     length 1.71504   
     axis 0 0 0   XYZ
    dof rx ry rz
    limits (-20.0 45.0)
           (-30.0 30.0)
           (-30.0 30.0)
  end
  begin
     id 13 
     name thorax
     direction -0.0157026 0.998908 0.0440032   
     length 1.77022   
     axis 0 0 0   XYZ
    dof rx ry rz
    limits (-20.0 45.0)
           (-30.0 30.0)
           (-30.0 30.0)
  end
  begin
     id 14 
     name lowerneck
     direction -0.0238856 0.998137 0.0561411   
     length 1.89341   
     axis 0 0 0   XYZ
    dof rx ry rz
    limits (-20.0 45.0)
           (-30.0 30.0)
           (-30.0 30.0)
  end
  begin
     id 15 
     name upperneck
     direction 0.0276574 0.952253 -0.304056   
     length 1.86999   
     axis 0 0 0   XYZ
    dof rx ry rz
    limits (-20.0 45.0)
           (-30.0 30.0)
           (-30.0 30.0)
  end
  begin
     id 16
     name head
     direction 0.00800083 0.994258 -0.106712  
     length 1.91492  
     axis 0 0 0   XYZ
    dof rx ry rz
    limits (-20.0 45.0)
           (-30.0 30.0)
           (-30.0 30.0)
  end
  begin
     id 17 
     name lclavicle
     direction 0.97203 0.225407 0.06595  
     length 3.34889  
     axis 0 0 0   XYZ
    dof ry rz
    limits (-20.0 10.0)
           (0.0 20.0)
  end
  begin
     id 18 
     name lhumerus
     direction 1 -4.48973e-011 2.20267e-027   
     length 4.85645   
     axis 180 -30 -90   XYZ
    dof rx ry rz
    limits (-60.0 90.0)
           (-90.0 90.0)
           (-90.0 90.0)
  end
  begin
     id 19
     name lradius
     direction 1 -4.4897e-011 4.60472e-027   
     length 2.79874   
     axis 180 -30 -90   XYZ
    dof rx
    limits (-10.0 170.0)
  end
  begin
     id 20
     name lwrist
     direction 1 -4.48952e-011 1.14928e-026   
     length 1.39937   
     axis -6.29373e-015 90 90   XYZ
    dof ry
    limits (-180.0 0.0)
 end
  begin
     id 21 
     name lhand
     direction 1 -4.48967e-011 2.29886e-026   
     length 0.573398   
     axis -1.46689e-014 90 90   XYZ
    dof rx rz
    limits (-90.0 90.0)
           (-45.0 45.0)
  end
  begin
     id 22 
     name lfingers
     direction 1 -4.48955e-011 4.59726e-026   
     length 0.462289   
     axis -2.93383e-014 90 90   XYZ
    dof rx
    limits (0.0 90.0)
  end
  begin
     id 23
     name lthumb
     direction 0.707107 -6.34866e-011 0.707107   
     length 0.663757   
     axis -90 45 5.69224e-014   XYZ
    dof rx rz
    limits (-45.0 45.0)
           (-45.0 45.0)
  end
  begin
     id 24 
     name rclavicle
     direction -0.981571 0.157346 0.108443   
     length 3.35257  
     axis 0 0 0   XYZ 
    dof ry rz
    limits (-10.0 20.0)
           (-20.0 0.0)
  end
  begin
     id 25 
     name rhumerus
     direction -1 -4.48967e-011 8.58308e-029  
     length 4.67018   
     axis 180 30 90   XYZ
    dof rx ry rz
    limits (-90.0 60.0)
           (-90.0 90.0)
           (-90.0 90.0)
  end
  begin
     id 26 
     name rradius
     direction -1 -4.48958e-011 4.52548e-027   
     length 2.65534   
     axis 180 30 90   XYZ
    dof rx
    limits (-10.0 170.0)
  end
  begin
     id 27 
     name rwrist
     direction -1 -4.48977e-011 1.14952e-026   
     length 1.32767   
     axis -6.29373e-015 -90 -90   XYZ
    dof ry
    limits (-180.0 0.0)
  end
  begin
     id 28
     name rhand
     direction -1 -4.48924e-011 2.29804e-026   
     length 0.594069   
     axis -1.46689e-014 -90 -90   XYZ
    dof rx rz
    limits (-90.0 90.0)
           (-45.0 45.0)
  end
  begin
     id 29
     name rfingers
     direction -1 -4.48998e-011 4.59888e-026   
     length 0.478954   
     axis -2.93383e-014 -90 -90   XYZ
    dof rx
    limits (0.0 90.0)
  end
  begin
     id 30
     name rthumb
     direction -0.707107 -6.34933e-011 0.707107   
     length 0.687685   
     axis -90 -45 -5.69224e-014   XYZ
    dof rx rz
    limits (-45.0 45.0)
           (-45.0 45.0)
  end
:hierarchy
  begin
    root lhipjoint rhipjoint lowerback
    lhipjoint lfemur
    lfemur ltibia
    ltibia lfoot
    lfoot ltoes
    rhipjoint rfemur
    rfemur rtibia
    rtibia rfoot
    rfoot rtoes
    lowerback upperback
    upperback thorax
    thorax lowerneck lclavicle rclavicle
    lowerneck upperneck
    upperneck head
    lclavicle lhumerus
    lhumerus lradius
    lradius lwrist
    lwrist lhand lthumb
    lhand lfingers
    rclavicle rhumerus
    rhumerus rradius
    rradius rwrist
    rwrist rhand rthumb
    rhand rfingers
  end

#!OML:ASF E:\pregnant2\Project 1\Capture day 1\Session 1\pregnant2.ASF
:FULLY-SPECIFIED
:DEGREES
596
root -4.50909 17.3817 19.9319 31.719 5.50232 1.22346
lowerback -21.6058 2.3018 -0.506199
upperback -14.8339 3.20089 -2.71103
thorax -4.05737 1.58915 -2.06958
lowerneck -8.74037 -8.76008 -16.2006
upperneck 25.9455 -11.1751 6.91282
head 11.1997 -5.96897 3.74678
rclavicle -7.25067e-014 7.15625e-015
rhumerus -46.655 5.6787 -92.4021
rradius 28.5018
rwrist 17.599
rhand -11.2297 -15.1147
rfingers 7.12502
rthumb 14.7992 -44.5663
lclavicle -7.25067e-014 7.15625e-015
lhumerus 21.1174 -14.2354 -24.8425
lradius 67.9811
lwrist 9.67604
lhand 1.29384 21.8694
lfingers 7.12502
lthumb 26.829 49.9862
rfemur -44.4299 12.6981 9.57873
rtibia 30.1091
rfoot -17.7951 -26.792
rtoes 2.25579
lfemur -41.5664 -10.0647 -12.3892
ltibia 23.5316
lfoot -11.176 19.2549
ltoes -4.12097
597
root -4.51024 17.3817 19.9382 31.6953 5.61722 1.20829
lowerback -21.6105 2.36496 -0.489692
upperback -14.8036 3.28341 -2.77183
thorax -4.01327 1.62829 -2.12792
lowerneck -8.51971 -8.84068 -16.4631
upperneck 25.8061 -11.287 6.9803
head 11.1435 -6.04059 3.80252
rclavicle 8.69683e-015 -2.46493e-014
rhumerus -46.761 5.65611 -92.4428
rradius 28.4794
rwrist 17.6297
rhand -11.2457 -15.1316
rfingers 7.12502
rthumb 14.7838 -44.5843
lclavicle 8.69683e-015 -2.46493e-014
lhumerus 20.9264 -12.1755 -25.4238
lradius 67.1075
lwrist 9.31468
lhand 1.06575 21.7945
lfingers 7.12502
lthumb 26.6108 49.9446
rfemur -44.3411 12.6554 9.66146
rtibia 30.0886
rfoot -17.8399 -26.8168
rtoes 2.30666
lfemur -41.5516 -10.111 -12.3373
ltibia 23.5478
lfoot -11.1876 19.2174
ltoes -4.1481
598
root -4.51124 17.3816 19.9444 31.6709 5.74226 1.18705
lowerback -21.6119 2.43237 -0.461685
upperback -14.7739 3.36969 -2.83408
thorax -3.97055 1.6685 -2.19368
lowerneck -8.28497 -8.92405 -16.729
upperneck 25.6614 -11.4068 7.05213
head 11.0847 -6.11589 3.85963
rclavicle -5.74985e-014 6.36111e-015
rhumerus -46.8696 5.62195 -92.4809
rradius 28.458
rwrist 17.6584
rhand -11.2674 -15.1365
rfingers 7.12502
rthumb 14.7629 -44.5908
lclavicle -5.74985e-014 6.36111e-015
lhumerus 20.7192 -10.1189 -25.95
lradius 66.2036
lwrist 8.86743
lhand 0.804302 21.6772
lfingers 7.12502
lthumb 26.3605 49.865
rfemur -44.2482 12.6065 9.75581
rtibia 30.0645
rfoot -17.8801 -26.8413
rtoes 2.34188
lfemur -41.5418 -10.1563 -12.2782
ltibia 23.5704
lfoot -11.1985 19.1736
ltoes -4.18488
599
root -4.51214 17.3814 19.9506 31.6461 5.87502 1.1619
lowerback -21.6106 2.50047 -0.42706
upperback -14.7436 3.45583 -2.8952
thorax -3.92796 1.70827 -2.26195
lowerneck -8.05708 -9.01078 -16.9866
upperneck 25.525 -11.53 7.11064
head 11.0301 -6.19314 3.90974
rclavicle 2.45499e-014 -1.63003e-014
rhumerus -46.9794 5.59594 -92.5262
rradius 28.4384
rwrist 17.671
rhand -11.2905 -15.1308
rfingers 7.12502
rthumb 14.7406 -44.5867
lclavicle 2.45499e-014 -1.63003e-014
lhumerus 20.4895 -8.07158 -26.4311
lradius 65.2727
lwrist 8.35112
lhand 0.505772 21.4944
lfingers 7.12502
lthumb 26.0747 49.7246
rfemur -44.1523 12.5586 9.8549
rtibia 30.0375
rfoot -17.9182 -26.8704
rtoes 2.36412
lfemur -41.5359 -10.2017 -12.2138
ltibia 23.5972
lfoot -11.2084 19.1261
ltoes -4.23101
600
root -4.513 17.3812 19.9569 31.6214 6.0131 1.13609
lowerback -21.6054 2.56771 -0.390047
upperback -14.7139 3.54046 -2.95517
thorax -3.88762 1.7472 -2.33069
lowerneck -7.8466 -9.10344 -17.2304
upperneck 25.4089 -11.6566 7.14402
head 10.9853 -6.27305 3.94719
rclavicle 3.54831e-014 -1.11319e-014
rhumerus -47.09 5.5863 -92.5848
rradius 28.4197
rwrist 17.6625
rhand -11.3157 -15.1164
rfingers 7.12502
rthumb 14.7164 -44.574
lclavicle 3.54831e-014 -1.11319e-014
lhumerus 20.2374 -6.04511 -26.8771
lradius 64.3194
lwrist 7.79018
lhand 0.147037 21.232
lfingers 7.12502
lthumb 25.7312 49.5124
rfemur -44.0542 12.5032 9.95951
rtibia 30.0091
rfoot -17.9586 -26.8975
rtoes 2.38529
lfemur -41.5318 -10.2489 -12.1468
ltibia 23.6252
lfoot -11.2149 19.0766
ltoes -4.28912
601
root -4.51388 17.3808 19.9632 31.5981 6.15361 1.11286
lowerback -21.5966 2.63321 -0.355138
upperback -14.6853 3.62314 -3.01457
thorax -3.85034 1.78534 -2.39814
lowerneck -7.65263 -9.20023 -17.458
upperneck 25.3126 -11.784 7.15071
head 10.9489 -6.35432 3.97152
rclavicle -6.99722e-014 -2.06736e-014
rhumerus -47.201 5.59259 -92.6572
rradius 28.4009
rwrist 17.6409
rhand -11.3424 -15.0997
rfingers 7.12502
rthumb 14.6906 -44.5592
lclavicle -6.99722e-014 -2.06736e-014
lhumerus 19.9637 -4.04628 -27.2956
lradius 63.3456
lwrist 7.20544
lhand -0.28728 20.9235
lfingers 7.12502
lthumb 25.3152 49.2635
rfemur -43.9576 12.4527 10.0574
rtibia 29.9806
rfoot -18.0006 -26.9312
rtoes 2.40633
lfemur -41.5296 -10.2986 -12.0808
ltibia 23.6523
lfoot -11.22 19.025
ltoes -4.34528
602
root -4.51471 17.3803 19.9697 31.5763 6.29668 1.09161
lowerback -21.587 2.69821 -0.320569
upperback -14.657 3.70527 -3.07364
thorax -3.81372 1.8233 -2.46512
lowerneck -7.47423 -9.30226 -17.6701
upperneck 25.2358 -11.9136 7.13051
head 10.9208 -6.43768 3.98259
rclavicle -3.77691e-015 2.78299e-014
rhumerus -47.3125 5.61449 -92.7435
rradius 28.3844
rwrist 17.6065
rhand -11.3794 -15.0832
rfingers 7.12502
rthumb 14.655 -44.5453
lclavicle -3.77691e-015 2.78299e-014
lhumerus 19.6743 -2.07467 -27.6832
lradius 62.3496
lwrist 6.60242
lhand -0.803626 20.5703
lfingers 7.12502
lthumb 24.8204 48.9794
rfemur -43.8627 12.4026 10.1518
rtibia 29.9536
rfoot -18.0533 -26.9664
rtoes 2.44442
lfemur -41.5278 -10.3504 -12.0155
ltibia 23.6765
lfoot -11.2255 18.9714
ltoes -4.39664
